# xmcd
#
# Track frame offsets: 
#        150
#        16841
#        29274
#        41524
#        55233
#        64347
#        81249
#        95152
#        107940
#        120636
#        134838
#        147709
#        159741
#        171957
#        185249
#        197013
#        213310
#        226954
#        240037
#        253426
#        264787
#        277391
#        290293
#        304785
#
# Disc length: 4395 seconds
#
# Revision: 0
# Processed by: cddbd v1.4PL0 Copyright (c) Steve Scherf et al.
# Submitted via: ExactAudioCopy v0.90a11
#
DISCID=74112918
DTITLE=Nancy Sinatra - Something Stupid
DYEAR=1900
DGENRE=
TTITLE0=Summer Wine
TTITLE1=The Last Of The Secret Agents
TTITLE2=These Boots Are Made For Walking
TTITLE3=Lady Bird
TTITLE4=It Ain´t Me Babe
TTITLE5=Sand
TTITLE6=So Long, Babe
TTITLE7=Wishin' and Hopin
TTITLE8=Call Me
TTITLE9=Storybook Children
TTITLE10=The Shadow Of Your Smile
TTITLE11=Something Stupid
TTITLE12=Things
TTITLE13=You Only Live Twice
TTITLE14=Sundown, Sundown
TTITLE15=Some Velvet Morning
TTITLE16=Friday´s Child
TTITLE17=Lightning´s Girl
TTITLE18=Sorry 'bout That
TTITLE19=How Does That Grab You, Darlin'
TTITLE20=Jackson
TTITLE21=Feelin' Kinda Sunday
TTITLE22=My Elusive Dreams
TTITLE23=Nights In White Satin
EXTD=
EXTT0=
EXTT1=
EXTT2=
EXTT3=
EXTT4=
EXTT5=
EXTT6=
EXTT7=
EXTT8=
EXTT9=
EXTT10=
EXTT11=
EXTT12=
EXTT13=
EXTT14=
EXTT15=
EXTT16=
EXTT17=
EXTT18=
EXTT19=
EXTT20=
EXTT21=
EXTT22=
EXTT23=
PLAYORDER=
